{"title":"Trespass.LiMiTED.PL.2011.BRRip.Xvid-RLF","uid":7136631,"size":723579645,"categoryP":"video","categoryS":"movies","magnet":"?xt=urn:btih:68c31f0a1436c624e21a980cb2bc5a269e3bfee4&amp;dn=Trespass.LiMiTED.PL.2011.BRRip.Xvid-RLF&amp;tr=udp%3A%2F%2Ftracker.openbittorrent.com%3A80&amp;tr=udp%3A%2F%2Fopen.demonii.com%3A1337&amp;tr=udp%3A%2F%2Ftracker.coppersurfer.tk%3A6969&amp;tr=udp%3A%2F%2Fexodus.desync.com%3A6969","seeders":0,"leechers":1,"uploader":"rlf-rls","files":-1,"time":1332873970,"description":"Trespass.PL.2011.LIMITED.BRRip.XviD-RLF \n                                            \nComplete name                    : rlf-trespass-pl.avi\nFormat                           : AVI\nFormat/Info                      : Audio Video Interleave\nFile size                        : 684 MiB\nDuration                         : 1h 30mn\nOverall bit rate                 : 1 054 Kbps\nLanguage                         : Polish\nSubs                             : English \nEncoder                          : Ralf\n\nVideo:\n\nFormat                           : MPEG-4 Visual\n\nFormat profile                   : Advanced Simple@L5\nFormat settings, BVOP            : 4\nFormat settings, QPel            : No\nFormat settings, GMC             : No warppoints\nFormat settings, Matrix          : H.263\nMuxing mode                      : Packed bitstream\nCodec ID                         : XVID\nDuration                         : 1h 30mn\nBit rate                         : 925 Kbps\nDisplay aspect ratio             : 2.35:1\nFrame rate                       : 23.976 fps\nColor space                      : YUV\nChroma subsampling               : 4:2:0\nBit depth                        : 8 bits\nBits/(Pixel*Frame)               : 0.195\nStream size                      : 600 MiB (88%)\n\nAudio:\n\nFormat                           : MPEG Audio\nFormat profile                   : Layer 3\nCodec ID/Hint                    : MP3\nDuration                         : 1h 30mn\nBit rate mode                    : Constant\nBit rate                         : 128 Kbps\nChannel(s)                       : 2 channels\nStream size                      : 77.8 MiB (11%)\nAlignment                        : Split accross interleaves\nInterleave, duration             : 42 ms (1.00 video frame)\nEncoding settings                : -m j -V 4 -q 2 -lowpass 17 -b 128\n\nMOVIE INFO:\n\nW ekskluzywnej rezydencji, w pilnie strzezonej dzielnicy mieszka rodzina \nMillerow. Kyle zajmuje sie handlem diamentami, jego nieskazitelna, piekna \nzona prowadzi dom, a zbuntowana, nastoletnia corka chodzi wlasnymi drogami. \nIch z pozoru monotonne zycie zmieni na zawsze jeden dzwonek do drzwi. \nUzbrojeni bandyci wpadaja do domu i terroryzuja rodzine, zmuszajac Kylea do \notworzenia sejfu. \n                                       \n                                &lt;a href=&quot;\nhttp://www.imdb.com/title/tt1674784/&quot; rel=&quot;nofollow&quot; target=&quot;_NEW&quot;&gt;\nhttp://www.imdb.com/title/tt1674784/&lt;/a&gt; &lt;a href=&quot;\nhttp://www.filmweb.pl/film/Trespass-2011-579478&quot; rel=&quot;nofollow&quot; target=&quot;_NEW&quot;&gt;\nhttp://www.filmweb.pl/film/Trespass-2011-579478&lt;/a&gt;\n                                               \nSOURCE:\n\nAMIABLE LIMITED.720p.BluRay.x264 / DVDSEED (THX GUYS)\n\n\nSCREENS:\n &lt;a href=&quot;\nhttp://www.postimg.com/64000/photo-63518.jpg&quot; rel=&quot;nofollow&quot; target=&quot;_NEW&quot;&gt;\nhttp://www.postimg.com/64000/photo-63518.jpg&lt;/a&gt; &lt;a href=&quot;\nhttp://www.postimg.com/64000/photo-63519.jpg&quot; rel=&quot;nofollow&quot; target=&quot;_NEW&quot;&gt;\nhttp://www.postimg.com/64000/photo-63519.jpg&lt;/a&gt; &lt;a href=&quot;\nhttp://www.postimg.com/64000/photo-63520.jpg&quot; rel=&quot;nofollow&quot; target=&quot;_NEW&quot;&gt;\nhttp://www.postimg.com/64000/photo-63520.jpg&lt;/a&gt; &lt;a href=&quot;\nhttp://www.postimg.com/64000/photo-63521.jpg&quot; rel=&quot;nofollow&quot; target=&quot;_NEW&quot;&gt;\nhttp://www.postimg.com/64000/photo-63521.jpg&lt;/a&gt;","torrent":{"xt":"urn:btih:68c31f0a1436c624e21a980cb2bc5a269e3bfee4","amp;dn":"Trespass.LiMiTED.PL.2011.BRRip.Xvid-RLF","amp;tr":["udp%3A%2F%2Ftracker.openbittorrent.com%3A80","udp%3A%2F%2Fopen.demonii.com%3A1337","udp%3A%2F%2Ftracker.coppersurfer.tk%3A6969","udp%3A%2F%2Fexodus.desync.com%3A6969"],"infoHash":"68c31f0a1436c624e21a980cb2bc5a269e3bfee4","infoHashBuffer":{"type":"Buffer","data":[104,195,31,10,20,54,198,36,226,26,152,12,178,188,90,38,158,59,254,228]},"announce":[],"urlList":[]}}